<svg width="100" height="100" viewBox="0 0 100 100" fill="none" xmlns="http://www.w3.org/2000/svg">
<path d="M74.2958 33.3197L45.0867 69.5634L12.6309 43.407C9.59258 40.9585 9.11453 36.5105 11.5631 33.4722L31.9052 8.23105C34.3537 5.19278 38.8017 4.71472 41.84 7.16329L74.2958 33.3197ZM76.2374 34.8845L87.1447 43.6747C90.1829 46.1233 90.661 50.5712 88.2124 53.6095L67.8704 78.8507C65.4218 81.889 60.9738 82.367 57.9355 79.9184L47.0283 71.1282L76.2374 34.8845Z" fill="#FEFEFE" stroke="#222222" stroke-width="2.49368" stroke-linejoin="round"/>
<path d="M68.6849 38.6587L56.6372 83.6213L15.3906 72.5693C11.6214 71.5594 9.38461 67.6851 10.3946 63.916L18.7849 32.6027C19.7949 28.8336 23.6691 26.5968 27.4383 27.6067L68.6849 38.6587ZM71.0936 39.3041L83.6415 42.6663C87.4107 43.6763 89.6475 47.5505 88.6375 51.3197L80.2472 82.6329C79.2372 86.4021 75.363 88.6389 71.5938 87.6289L59.0459 84.2667L71.0936 39.3041Z" fill="#FEFEFE" stroke="#222222" stroke-width="2.49368" stroke-linejoin="round"/>
<path d="M65.0503 43.7883L69.7145 90.1028L28.4105 94.2624C24.528 94.6534 21.0637 91.823 20.6727 87.9405L17.4244 55.6858C17.0334 51.8033 19.8638 48.339 23.7463 47.948L65.0503 43.7883ZM67.5314 43.5385L81.6394 42.1177C85.5219 41.7267 88.9862 44.5571 89.3772 48.4396L92.6255 80.6943C93.0165 84.5768 90.1861 88.0412 86.3036 88.4322L72.1956 89.8529L67.5314 43.5385Z" fill="#FEFEFE" stroke="#222222" stroke-width="2.49368" stroke-linejoin="round"/>
</svg>
