<svg width="101" height="101" viewBox="0 0 101 101" fill="none" xmlns="http://www.w3.org/2000/svg">
<path d="M83.193 86.579C80.7697 89.0185 76.8287 89.0352 74.3847 86.6164L14.5789 27.4254C12.1286 25.0002 12.1118 21.0467 14.5415 18.6008L23.6578 9.42373C26.0812 6.98424 30.0222 6.96752 32.4661 9.38635L34.5864 11.4848L40.3312 17.1705L45.5046 22.2908L50.5438 27.2782L74.0713 50.5639L78.9832 55.4253L83.9706 60.3614L89.5973 65.9302L92.2719 68.5774C94.7223 71.0025 94.739 74.9561 92.3094 77.4019L83.193 86.579Z" stroke="#222222" stroke-width="2.49368" stroke-linecap="round"/>
<path d="M11.2841 73.9737C11.2841 72.3143 11.9457 70.7234 13.1224 69.5532L72.8428 10.165L75.8762 7.14844C78.3208 4.71747 82.2743 4.73214 84.7008 7.1812L93.8051 16.3703C96.2252 18.8129 96.2106 22.7539 93.7724 25.1786L90.9333 28.0018L30.9816 87.6201C29.8135 88.7817 28.2331 89.4337 26.5857 89.4337L12.5309 89.4338C11.8423 89.4338 11.2841 88.8756 11.2841 88.187L11.2841 73.9737Z" fill="#FEFEFE" stroke="#222222" stroke-width="2.49368"/>
</svg>
