<svg width="1386" height="786" viewBox="0 0 1386 786" fill="none" xmlns="http://www.w3.org/2000/svg">
<path d="M892.542 274.925C905.128 271.452 914.049 265.159 920.342 279.361C923.255 285.936 928.152 290.183 934.259 292.918C945.067 280.083 941.628 302.436 961.436 297.69C960.679 289.919 959.957 288.473 959.51 284.14C967.42 269.767 977.736 257.731 994.93 247.414C988.225 239.264 988.912 236.513 982.723 228.982C996.65 211.306 1027.6 221.623 1030.01 210.204C1036.2 200.99 1038.98 210.859 1043.76 209.436C1046.51 204.429 1061.99 192.393 1071.27 188.748C1072.3 180.355 1088.54 152.844 1103.25 173.478C1108.41 178.636 1112.75 164.055 1117.01 163.161C1121.45 162.232 1122.82 173.926 1127.33 173.479C1127.6 177.709 1135.65 180.356 1127.33 182.076C1122.17 206.148 1127.33 200.989 1144.52 216.464C1149.71 221.002 1158.45 223.652 1149.85 228.638C1147.97 233.359 1154.84 247.414 1144.52 242.256C1131.42 245.7 1140.02 268.94 1147.96 271.486C1154.84 283.384 1151.4 309.313 1138.71 293.426C1136.1 297.732 1131.02 299.17 1129.05 304.155C1116.88 311.776 1125.3 333.118 1134.17 344.94C1143.8 357.801 1141.39 367.568 1125.74 370.732C1111.89 373.517 1106.52 377.678 1112.23 392.362C1113.57 410.76 1110.13 421.076 1125.74 431.393C1112.23 440.374 1111.85 452.026 1108.41 462.342C1096.38 472.659 1089.22 498.897 1100.95 516.264C1118.73 531.119 1111.85 548.314 1096.69 549.827C1087.78 546.594 1080.9 563.995 1067.15 561.517C1060.74 563.909 1053.98 565.327 1047.48 563.995C1035.78 561.588 1025.81 564.27 1013.84 567.227C1013.84 582.702 996.65 565.508 990.426 557.323C987.363 548.662 972.578 546.594 976.334 537.997C967.749 531.601 948.506 536.278 946.099 525.961C939.909 519.083 928.767 529.985 927.082 534.799C912.398 546.594 908.89 557.736 893.519 563.617C892.199 548.634 895.204 529.4 884.453 521.615C879.872 511.674 859.096 505.328 867.693 494.278C847.06 495.012 841.902 474.378 836.021 469.702C834.339 459.876 835.119 452.311 833.305 441.709C840.182 415.918 821.269 439.99 821.269 383.49C823.743 378.071 826.785 372.213 829.583 366.055C838.463 369.494 845.34 321.35 821.269 305.875C828.731 302.264 833.476 297.003 838.463 295.558C838.463 283.522 848.779 290.4 857.376 298.997C865.07 301.2 872.846 299.096 879.241 294.461C884.887 288.681 893.057 278.95 893.897 268.735L892.542 274.925Z" fill="#A7202E" fill-opacity="0.04"/>
<path d="M761.466 245.489C774.19 245.798 784.919 245.42 795.476 246.52C801.769 247.174 811.364 248.584 813.117 252.504C810.951 261.168 809.231 268.046 812.67 274.753C812.67 304.154 802.044 298.686 793.757 312.751C794.754 314.436 794.479 316.224 795.476 317.909C803.901 315.881 808.097 318.083 817.553 315.813C818.62 317.808 822.471 326.85 824.706 329.945C824.706 340.262 831.49 339.076 832.817 343.701C838.462 354.017 820.029 360.895 827.368 367.773C824.836 371.33 823.636 377.787 819.548 381.528C811.811 388.612 802.973 394.596 812.67 405.6C816.625 408.625 822.987 417.636 820.029 426.647C822.162 438.443 823.09 450.479 825.772 462.102C826.263 464.222 826.765 466.339 827.275 468.454C821.267 474.377 829.372 476.994 830.459 481.255C840.181 479.535 831.584 524.24 847.528 519.8C848.737 524.177 849.758 528.131 850.498 531.118C851.151 533.697 842.072 530.948 840.559 532.908C825.428 552.406 838.565 571.079 842.141 591.781C827.045 585.178 810.297 584.558 809.231 605.053C809.025 608.905 805.346 614.89 799.5 616.059C776.562 608.492 783.44 651.478 769.685 648.039C768.343 662.517 770.2 680.158 766.246 694.463C764.905 699.381 758.13 698.246 757.649 704.78C748.915 708.274 740.454 718.535 743.661 728.852C739.727 737.665 733.101 744.245 714.319 739.17C714.319 734.634 715.814 730.743 717.655 727.132C724.98 725.413 728.555 711.353 720.922 700.827C711.224 694.463 700.908 680.708 697.469 675.55C698.741 658.699 697.159 646.871 695.302 632.187C702.627 594.737 692.276 611.795 689.216 603.37C684.83 591.298 672.159 590.612 662.289 585.763C653.108 581.224 651.939 576.031 657.957 568.5C660.708 565.061 669.924 559.11 673.397 555.19C669.408 550.788 659.951 549.896 657.716 547.454C659.654 540.475 664.8 534.557 669.958 529.399C672.323 522.208 670.263 508.787 669.958 501.888C669.804 498.511 668.904 495.47 667.599 492.584C659.641 493.291 657.12 477.644 654.586 468.017C645.886 467.499 632.131 433.111 656.203 419.355C661.98 408.042 645.783 409.553 639.008 400.442C650.941 400.442 641.519 372.348 644.683 360.14C659.882 357.423 657.922 345.42 644.683 336.823C639.834 326.025 640.728 310.689 663.08 317.086C668.754 316.535 674.944 317.601 680.275 315.813C683.37 314.782 686.602 313.578 687.29 310.689C685.433 304.154 698.873 298.996 698.873 290.399C707.785 286.96 714.663 271.485 731.617 274.238C769.685 274.238 747.332 250.852 761.466 245.489Z" fill="#A7202E" fill-opacity="0.04"/>
<path d="M976.015 555.19C969.138 572.385 972.576 575.823 971.682 586.14C964.873 590.886 958.821 599.895 950.224 601.615C945.341 604.503 941.799 606.326 936.64 606.154C931.435 605.978 924.432 605.054 918.364 609.155C919.274 615.37 888.325 618.809 895.58 625.137C891.867 630.089 892.314 641.849 893.483 649.759C893.483 715.097 890.044 689.305 855.655 727.133C838.461 723.694 819.823 730.572 819.823 707.36C829.864 707.36 816.625 701.479 814.389 701.341C800.978 700.379 792.828 700.482 780.001 699.622C784.024 675.137 780.241 658.941 784.712 639.133C781.72 629.126 793.034 631.258 798.089 630.089C802.319 629.126 807.477 632.29 811.501 633.424C824.706 627.406 823.64 611.553 828.213 603.231C837.223 601.925 849.637 601.409 849.775 599.896C850.738 588.582 851.976 575.858 847.677 565.92C843.757 556.841 852.217 555.81 847.196 542.604C850.188 530.293 847.952 516.744 847.952 502.164C852.182 503.126 858.682 502.748 860.023 505.19C865.972 519.082 881.447 522.521 873.944 533.219C876.67 540.828 878.297 548.989 878.008 558.629C877.87 563.168 878.008 570.665 883.166 573.21C887.413 575.306 891.488 591.161 902.08 586.14C903.799 577.543 915.595 578.781 921.785 574.964C926.358 572.179 931.964 574.964 931.964 561.14C938.635 540.507 942.025 542.221 957.102 549.001C962.913 551.614 960.884 548.76 970.857 551.752L976.015 555.19Z" fill="#A7202E" fill-opacity="0.04"/>
<path d="M1125.81 384.967C1138.67 379.809 1133.93 379.293 1143.39 371.212C1145.55 369.389 1158.28 371.21 1165.22 365.021C1168.25 366.534 1177.84 371.589 1179.94 374.649C1183.79 380.254 1179.84 384.726 1183.52 390.434L1176.43 395.524C1173.54 399.478 1183.59 397.621 1179.94 400.647C1176.43 412.476 1167.23 409.038 1165.67 442.533C1164.36 470.594 1167.18 497.932 1165.15 525.958C1164.19 538.992 1168.59 536.275 1176.43 538.133C1179.73 536.929 1184 535.312 1187.51 536.275C1208.79 542.018 1206.42 529.397 1215.88 518.6C1230.49 515.642 1249.41 522.52 1249.85 534.04C1264.88 532.836 1261.51 551.533 1266.6 560.828C1278.64 565.505 1275.74 578.114 1280.46 586.62C1283.14 591.435 1292.39 594.735 1287.09 602.267C1265.71 605.465 1260 605.98 1264.88 627.405C1275.2 632.563 1282.07 641.16 1264.05 646.456C1262.16 648.692 1242.05 647.178 1240.81 644.599C1229.77 621.283 1214.91 630.706 1199.54 632.563C1182.11 634.66 1184.07 622.246 1175.78 605.878C1177.98 598.278 1178.91 582.528 1184.07 577.541C1201.77 568.188 1184.41 563.786 1181.87 552.473C1181.87 562.066 1153.12 560.347 1153.35 572.383C1148.85 575.015 1144.15 574.849 1138.67 568.188C1140.5 560.176 1144.42 551.028 1142.8 543.153C1141.84 538.545 1131.69 535.966 1123.72 535.794C1120.69 530.051 1127.33 524.239 1114.5 518.669C1102.12 500.615 1110.13 464.059 1126.47 461.79C1129.05 453.743 1153.12 436.548 1129.46 423.688C1123.78 416.501 1126.53 402.642 1125.81 395.524V384.967Z" fill="#A7202E" fill-opacity="0.04"/>
<path d="M1257.59 0.742676C1266.6 3.25465 1275.2 15.2906 1278.77 25.021C1275.99 40.1631 1256.28 56.5568 1249.4 50.0046C1245.85 51.565 1242.45 53.2083 1239.53 55.214C1230.77 61.232 1225.88 71.2063 1235.65 73.7511C1249.4 54.8374 1257.52 87.7799 1247.89 105.628C1253.29 105.048 1258.36 104.501 1263.16 103.983C1270.04 84.0676 1285.51 92.6647 1293.35 100.71C1292.91 109.376 1294.21 119.177 1291.53 127.705C1290.67 147.686 1280.56 149.75 1273.48 163.161C1270.04 164.881 1260.58 167.15 1258 164.881C1245.35 153.601 1237.37 175.197 1227.67 174.301C1220.17 185.514 1211.06 192.802 1204.39 203.153C1199.54 209.586 1181.35 221.07 1169.83 217.597C1162.33 215.327 1147.51 218.767 1141.15 214.744C1137.23 212.268 1139.43 198.924 1141.15 195.863C1141.15 178.636 1149.06 167.905 1128.53 160.787C1120.45 164.881 1138.19 132.726 1157.07 131.866C1166.87 135.65 1165.77 123.51 1164.84 121.343C1153.12 123.614 1156.76 110.201 1150.33 102.189C1154.84 78.9093 1185.79 49.6791 1192.11 55.5235C1197.49 51.146 1206.42 53.118 1208.97 44.5208C1244.25 32.4849 1235.65 27.3266 1250.95 25.6056C1221.89 18.7295 1244.62 17.3179 1240.36 11.747C1244.93 7.89548 1249.03 4.42224 1253.12 0.949005C1254.6 0.914616 1256.11 0.84584 1257.59 0.811451V0.742676Z" fill="#A7202E" fill-opacity="0.04"/>
<path d="M529.137 396.832C536.256 399.377 540.657 396.523 546.847 398.724C548.532 390.78 550.217 385.828 549.598 378.091C547.535 352.3 540.348 362.203 558.092 352.299C559.846 351.336 575.39 331.666 584.675 325.201C595.362 338.292 590.865 366.054 578.829 373.93C575.04 384.272 574.821 396.481 572.639 406.496C565.073 414.233 559.296 428.917 546.847 428.195C542.274 427.92 537.631 428.16 531.132 428.16C532.929 433.301 535.047 437.584 537.563 441.017C544.44 436.551 549.238 451.361 558.092 451.476C573.671 452.026 589.145 436.551 592.584 412.479C594.063 413.167 598.774 413.236 599.152 414.233C602.006 421.489 605.789 430.361 614.249 423.105C617.928 419.941 617.894 407.562 614.661 402.541C610.466 396.041 607.405 392.121 599.29 386.687C601.147 382.217 604.62 381.529 599.049 372.623C600.081 367.155 599.29 361.309 599.29 358.18C613.217 352.299 618.822 367.98 630.686 373.93C628.829 376.715 625.838 379.982 624.393 383.799C622.949 387.616 637.289 388.407 622.743 395.732C656.203 419.356 635.57 436.551 644.167 460.623C642.448 481.256 659.642 476.097 654.793 497.9C656.65 508.079 657.166 522.144 656.203 532.838C648.981 531.876 635.57 537.997 631.133 526.443C622.261 520.39 615.212 516.848 605.308 523.76C602.763 525.514 597.123 524.861 593.925 523.279C578.829 520.803 566.793 501.889 554.757 507.047C547.604 502.026 540.176 494.736 534.124 488.133C531.476 485.245 534.399 482.631 531.132 481.256C511.771 479.536 496.296 469.22 485.98 451.476C474.018 446.867 485.98 433.112 499.735 426.234C520.368 424.515 541.001 400.443 529.068 396.936L529.137 396.832Z" fill="#A7202E" fill-opacity="0.04"/>
<path d="M477.865 440.021C472.225 455.463 485.981 464.06 491.895 468.804C496.297 469.664 492.858 482.973 504.206 475.957C521.469 481.975 530.686 495.009 544.063 507.973C549.599 522.521 573.671 519.082 582.269 533.696C584.654 534.753 587.11 530.782 589.627 532.114C594.476 534.315 600.907 534.452 606.34 533.696C629.381 530.497 649.326 532.114 645.887 559.521C627.936 558.146 615.625 561.481 599.428 559.521C571.952 559.521 580.549 575.822 568.238 572.967C559.022 594.598 539.283 593.016 525.527 575.822C512.941 556.014 504.206 556.909 488.835 562.995C470.506 563.786 453.69 570.939 451.592 546.592C449.942 527.644 458.47 491.81 437.94 491.81C436.324 490.572 436.839 478.743 437.94 475.957C446.434 462.34 468.786 436.55 477.865 440.021Z" fill="#A7202E" fill-opacity="0.04"/>
<path d="M1259.82 258.383C1247.96 258.383 1239.19 256.217 1237.47 258.762C1233.93 269.766 1218.46 280.083 1225.44 286.926C1224.03 291.702 1224.89 296.985 1226.77 302.435C1237.37 302.435 1234.94 319.47 1238.26 327.367C1256.28 333.385 1239.09 347.14 1230.49 354.018C1216.74 376.371 1214.02 361.17 1207.18 368.667C1197.82 374.651 1192.35 375.235 1183.83 368.942C1166.87 369.493 1166.49 357.216 1156.9 354.224C1137.64 362.615 1134.31 332.525 1142.8 319.63C1147.89 311.927 1154.39 306.802 1158.89 298.755C1170.31 295.558 1168.59 276.644 1159 272.758C1147.1 255.529 1144.93 236.822 1165.15 230.22C1182.35 237.097 1177.19 213.025 1193.52 222.688C1205.73 214.538 1215.5 216.842 1224.54 227.606C1227.29 230.907 1231.21 233.211 1234.51 236.065C1240.81 249.133 1252.98 241.912 1263.16 250.853L1259.82 258.383Z" fill="#A7202E" fill-opacity="0.04"/>
<path d="M974.296 608.492C999.64 600.205 991.181 587.034 984.613 572.384C992.075 578.574 1000.09 574.104 1001.81 586.14C1010.64 592.742 1020.1 600.996 1029.39 606.98C1044.79 591.298 1043.73 630.845 1039.67 641.85C1044.79 654.917 1037.91 652.51 1038.53 657.703C1039.39 664.959 1043.31 672.146 1042.87 679.161C1046.51 713.377 1029.39 716.816 1029.39 725.562C1021.98 731.827 1012.33 731.186 1002.46 720.221C998.368 727.132 982.274 726.548 977.735 732.291C975.053 762.07 955.21 755.056 931.31 749.485C932.789 722.111 953.663 720.221 963.635 700.001C970.857 700.001 979.454 684.147 975.74 668.398C973.918 664.305 981.483 659.628 986.332 654.917C991.112 640.954 996.717 627.578 981.174 618.809C976.187 615.989 974.88 613.342 968.587 606.155L974.296 608.492Z" fill="#A7202E" fill-opacity="0.04"/>
<path d="M325.316 475.066C330.612 470.355 336.149 465.884 341.101 460.829C346.947 454.88 339.14 445.973 344.986 439.99C353.652 431.083 359.911 427.988 354.89 420.56C351.624 415.711 353.24 407.63 352.415 398.345C358.708 402.093 361.252 395.078 365.62 397.004C379.375 395.285 383.123 411.445 384.533 393.563C385.668 379.189 410.325 378.09 428.585 383.283C438.523 388.82 444.713 398.724 458.297 400.03C475.663 397.005 516.929 388.408 519.336 405.051C512.527 410.244 509.364 413.579 505.512 415.436C505.512 424.516 487.252 424.996 477.485 427.266C472.224 419.357 434.397 455.465 434.397 475.891C430.304 484.557 420.641 479.537 410.703 484.041C396.638 479.983 382.814 479.537 365.62 480.775C363.591 478.505 356.988 474.894 351.589 475.891C343.817 477.37 336.08 479.124 328.343 480.774C327.345 478.849 326.348 476.957 325.351 475.031L325.316 475.066Z" fill="#A7202E" fill-opacity="0.04"/>
<path d="M1355.63 323.961C1358.62 330.868 1361.61 337.774 1364.61 344.68C1376.64 345.42 1367.8 352.051 1369.39 355.737C1371.24 359.993 1373.08 364.248 1374.92 368.503C1376.89 373.047 1393.84 371.211 1380.82 382.133C1382.45 385.909 1384.09 389.685 1385.72 393.46C1380.94 391.059 1362.89 403.88 1357.73 386.458C1341.7 383.025 1326.61 379.06 1333.66 373.155C1324.11 368.635 1317.09 363.738 1316.46 358.424C1299.75 347.996 1288.78 337.368 1294.11 328.226C1290.89 315.893 1292.39 285.24 1281.33 287.732C1275.96 275.021 1273.54 263.92 1281.49 258.549C1280.48 254.965 1279.44 251.39 1278.36 247.825C1276.79 242.658 1274.68 237.646 1272.26 232.738C1264.88 228.499 1264.45 218.41 1260.41 211.408C1259.48 209.826 1264.88 225.06 1248.72 212.233C1244.76 214.95 1239.95 219.249 1235.65 225.06C1227.64 217.598 1224.34 213.093 1215.02 204.427C1226.16 193.87 1234.38 182.762 1245.93 171.792C1254.77 189.846 1270.04 170.039 1276.81 179.426C1275.2 166.6 1288.88 160.513 1296.07 148.271C1306.15 152.844 1304.94 175.919 1309.14 188.918C1283.31 215.328 1278.19 255.906 1305.46 283.314C1306.25 284.139 1307.21 285.687 1307.9 285.584C1318.89 283.905 1327.06 286.366 1333.66 291.165C1336.12 291.165 1347.41 283.521 1343.18 300.715C1346.72 305.28 1349.86 310.459 1352.98 315.708C1354.25 317.84 1357.63 318.7 1360.03 320.179C1358.55 321.451 1357.07 322.723 1355.6 323.996L1355.63 323.961Z" fill="#A7202E" fill-opacity="0.04"/>
<path d="M1168.59 570.665C1162.99 589.407 1167.56 595.424 1164.81 609.661C1162.57 621.112 1177.19 630.845 1178.19 637.516C1181.52 638.719 1183.04 644.944 1185.37 648.83C1181.63 650.377 1175.92 657.255 1172.03 658.356C1154.87 663.205 1141.36 658.493 1129.05 641.849C1106.69 606.773 1061.99 609.661 1053.91 624.826C1048.37 604.984 1010.41 589.579 1017.28 577.955C1042.99 579.349 1063.45 579.394 1082.62 572.273C1082.62 556.91 1099.82 574.104 1123.89 543.154C1121.62 559.42 1129.49 567.948 1128.08 577.955C1147.11 577.955 1153.63 583.527 1168.59 570.665Z" fill="#A7202E" fill-opacity="0.04"/>
<path d="M807.133 722.007C811.845 722.007 812.223 711.589 816.109 713.377C822.373 716.305 828.145 727.475 837.256 727.475C848.778 727.132 850.973 738.126 856.515 741.505C864.803 746.56 871.337 746.285 877.148 738.307C883.166 723.693 904.659 712.556 904.659 699.345C909.68 688.856 907.101 677.338 907.238 665.233C907.376 655.432 906.482 643.808 905.484 633.904C910.058 633.904 920.478 617.466 933.03 617.191C942.315 616.985 951.565 613.993 961.435 612.136C966.593 618.394 980.004 627.99 988.051 637.722C984.096 642.949 974.296 656.636 968.69 654.915C966.455 658.113 963.085 662.24 963.635 665.404C967.577 689.213 933.03 696.183 934.749 708.599C930.53 711.22 926.382 713.868 922.713 716.816C915.044 723.006 922.713 738.307 907.857 744.841C903.799 758.082 883.166 752.166 868.62 755.433C864.665 756.327 854.933 755.296 853.936 752.924C845.305 732.187 798.914 746.046 811.294 729.951C809.816 729.435 808.509 728.3 807.133 727.475C807.133 725.687 807.133 723.864 807.168 722.076L807.133 722.007Z" fill="#A7202E" fill-opacity="0.04"/>
<path d="M639.009 579.261C646.575 584.454 652.833 589.853 660.536 594.839C659.642 603.333 672.95 602.164 675.151 607.529C671.678 617.088 690.592 622.247 679.278 633.217C680.757 632.976 682.235 632.735 683.68 632.495C683.267 651.649 661.362 639.441 656.204 654.916C646.437 659.18 633.129 665.679 620.096 654.916C599.463 630.844 592.585 630.844 571.676 627.096C577.11 620.527 562.667 616.057 561.635 610.211C560.535 604.021 560.741 597.797 564.798 591.538C568.581 585.726 575.39 586.139 579.31 576.235C583.471 573.106 587.77 575.821 592.585 576.234C607.337 577.506 623.568 574.688 638.252 576.992C638.08 577.748 640.901 578.505 640.729 579.261H639.009Z" fill="#A7202E" fill-opacity="0.04"/>
<path d="M381.78 402.78C370.226 396.349 358.74 397.003 356.539 389.024C346.704 383.247 338.863 384.072 341.58 399.582C342.543 405.015 342.371 412.168 340.308 417.636C337.385 425.373 344.984 427.952 340.342 438.475C341.546 439.128 341.718 444.906 340.308 446.488C338.623 448.413 333.671 450.064 331.951 448.998C321.392 435.832 305.438 422.794 291.682 422.794C283.085 410.758 270.4 408.244 262.452 409.039C259.77 407.147 259.632 392.739 260.733 388.406C271.049 383.247 271.084 370.248 274.935 359.519C275.623 357.628 277.927 354.842 279.303 354.945C290.273 355.599 301.174 357.49 312.144 357.662C316.442 357.731 322.254 355.496 324.799 352.263C334.53 339.986 341.649 333.761 351.862 345.418C362.522 353.706 369.056 364.333 379.373 371.211C382.709 375.682 379.889 391.397 381.746 402.849L381.78 402.78Z" fill="#A7202E" fill-opacity="0.04"/>
<path d="M368.303 578.232C379.617 570.357 382.815 568.946 394.851 556.91C398.289 554.296 400.009 550.032 406.68 547.145C413.455 532.186 401.728 512.205 425.8 503.607C440.656 506.977 452.382 507.906 451.592 519.082C450.663 532.7 442.788 550.996 453.449 562.448C455.753 564.924 451.66 573.624 450.044 579.332C449.769 580.364 444.095 577.131 442.994 578.232C438.008 583.184 433.71 589.854 429.239 589.579C414.899 588.685 402.588 590.749 388.558 587.07C360.462 589.579 376.694 582.015 368.303 578.266V578.232Z" fill="#A7202E" fill-opacity="0.04"/>
<path d="M611.807 699.794C599.462 687.588 594.304 684.149 583.987 696.185C577.281 698.798 566.793 701.343 556.476 689.307C549.427 676.825 539.282 670.393 551.318 647.799C554.722 645.735 558.127 641.574 561.634 633.562C573.671 630.846 579.963 642.984 588.973 647.799C592.825 649.862 601.181 641.163 600.321 654.436C611.601 660.625 626.973 654.436 634.057 673.108C652.764 672.113 633.851 691.026 628.692 697.904C623.018 700.277 618.513 697.49 611.773 699.794H611.807Z" fill="#A7202E" fill-opacity="0.04"/>
<path d="M571.952 709.769C580.549 699.624 595.095 691.885 608.06 709.939C611.498 713.378 615.866 704.745 620.095 703.06C631.753 698.486 663.081 694.464 654.243 711.418C659.883 720.84 664.078 732.428 652.765 739.168C646.059 743.158 635.57 739.168 630.653 748.729C618.376 756.363 589.146 756.363 589.662 745.084C572.846 734.114 580.549 735.902 575.39 721.975L571.952 709.769Z" fill="#A7202E" fill-opacity="0.04"/>
<path d="M260.839 375.475C246.98 367.773 224.628 369.492 212.867 339.435C218.61 338.025 222.908 323.068 230.199 334.93C234.944 331.665 240.997 330.666 244.023 326.677C250.419 316.19 259.016 307.593 260.736 292.118C265.166 285.792 271.052 278.363 280.853 275.129C296.981 292.014 286.527 307.593 284.808 323.068C267.613 328.226 279.649 366.054 260.839 375.44V375.475Z" fill="#A7202E" fill-opacity="0.04"/>
<path d="M699.91 771.665C698.328 765.509 694.476 758.597 696.368 756.19C699.532 752.167 697.812 741.816 702.627 742.607C707.485 744.342 712.072 745.702 716.382 746.645C714.033 756.807 733.576 756.363 740.932 746.645C746.571 743.453 751.652 739.487 754.209 735.729C758.542 729.333 764.526 721.974 771.851 716.127C778.316 714.477 795.475 713.377 792.793 720.77C796.473 725.412 794.272 735.213 793.55 742.675C793.068 747.524 792.037 752.924 789.148 756.947C797.195 758.082 789.251 771.699 788.013 771.94C779.863 773.522 776.562 787.312 763.46 772.662C738.734 759.801 711.224 768.399 699.944 771.699L699.91 771.665Z" fill="#A7202E" fill-opacity="0.04"/>
<path d="M424.08 496.73C419.025 504.846 411.425 511.483 407.195 515.507C400.145 522.247 392.236 527.577 396.603 539.476C397.36 541.505 394.402 546.181 391.961 547.832C382.814 558.629 374.216 560.349 360.461 563.273C356.403 565.095 349.457 564.614 344.367 563.273C334.67 532.838 384.533 553.471 364.484 488.237C379.478 490.747 402.621 493.119 424.08 496.73Z" fill="#A7202E" fill-opacity="0.04"/>
<path d="M528.966 603.334C519.784 598.829 516.552 592.947 505.376 587.479C487.7 594.737 487.7 606.394 496.297 620.528C493.821 623.657 493.993 626.682 492.583 629.674C489.419 656.636 473.222 647.351 463.628 636.003C459.329 630.879 453.277 626.649 448.153 622.247C448.153 613.65 452.864 591.537 460.189 587.479C468.786 574.104 491.139 577.679 496.297 563.787C500.767 562.171 511.875 572.625 516.93 577.542C523.12 583.56 530.479 591.744 535.534 598.896C535.328 599.928 529.172 602.302 528.966 603.334Z" fill="#A7202E" fill-opacity="0.04"/>
<path d="M381.095 358.83C390.105 357.145 392.65 354.05 401.969 353.947C415.483 357.457 429.961 347.862 439.555 366.054C441.378 369.493 448.703 366.327 453.827 367.428C461.426 369.078 471.055 367.428 476.592 371.52C485.98 391.845 492.857 374.651 505.719 364.023C520.368 372.001 526.936 387.854 515.21 396.039C503.174 396.039 487.012 405.152 472.775 396.039C466.138 391.775 451.247 400.442 451.247 385.894C432.678 371.52 423.737 366.086 401.969 367.428C387.835 368.287 384.602 375.166 381.095 364.334V358.83Z" fill="#A7202E" fill-opacity="0.04"/>
<path d="M1290.02 629.468C1290.02 657.151 1292.18 689.202 1290.67 716.816C1290.29 723.969 1279.8 733.357 1273.48 737.449C1258.62 747.078 1254.29 743.95 1245.97 720.255C1263.03 716.169 1266.6 687.586 1254.84 687.586C1252.35 680.869 1249.34 674.194 1247.68 668.672C1246.62 659.387 1257.66 660.624 1267.53 655.431C1271.33 658.399 1275.97 651.169 1281.05 642.881C1275.2 632.564 1286.92 633.179 1289.98 629.468H1290.02Z" fill="#A7202E" fill-opacity="0.04"/>
<path d="M298.561 270.005C304.338 261.443 298.183 255.047 303.719 249.029C307.468 244.937 315.171 233.554 320.088 233.657C324.593 233.726 336.491 244.627 338.108 249.029C339.827 274.923 367.338 281.801 352.001 299.374C353.273 306.217 353.582 312.75 343.266 317.909C335.735 314.195 334.669 314.47 324.352 314.47C323.08 313.782 316.408 310.893 315.755 309.311C312.316 288.678 315.927 270.866 294.331 270.006L298.561 270.005Z" fill="#A7202E" fill-opacity="0.04"/>
<path d="M302.001 458.905C292.143 471.216 288.888 461.828 277.517 451.511C275.006 449.276 273.699 446.697 271.052 446.869C248.871 463.169 226.347 424.516 212.144 410.52C219.641 401.786 224.558 394.117 231.333 388.787C235.563 385.451 242.543 384.935 248.321 384.763C249.318 384.763 255.714 382.528 257.296 386.689C259.394 392.225 255.164 409.832 259.325 413.031C265.893 409.041 272.771 419.358 284.807 424.516C284.807 441.711 320.915 438.272 309.395 448.485L302.001 458.905Z" fill="#A7202E" fill-opacity="0.04"/>
<path d="M504.515 605.224C516.895 606.909 534.709 597.11 542.721 605.261C554.585 607.359 551.318 627.406 545.61 639.785C537.975 649.998 529.86 658.836 535.224 673.348C535.224 683.871 523.188 685.109 521.091 683.871C508.333 691.024 494.508 667.159 491.138 658.355C488.215 650.721 498.601 647.523 504.516 642.88C504.515 629.125 513.216 617.054 504.515 605.259V605.224Z" fill="#A7202E" fill-opacity="0.04"/>
<path d="M369.4 593.946C365.617 606.774 352.55 598.863 343.747 601.443C362.178 606.774 349.524 615.507 353.444 624.964C331.229 648.039 346.704 668.672 326.071 649.759C307.157 634.284 316.442 627.715 312.144 616.023C306.573 600.789 319.537 567.536 334.668 563.788C337.522 563.1 341.718 571.284 344.194 573.175C353.788 580.569 362.97 588.513 369.4 593.912V593.946Z" fill="#A7202E" fill-opacity="0.04"/>
<path d="M191.957 620.526C185.08 634.282 174.763 629.33 165.547 627.438C158.05 628.504 150.45 629.158 142.885 629.33C139.962 629.398 135.594 628.332 134.46 626.303C133.222 624.103 133.531 609.42 135.216 608.492C148.387 601.029 147.115 596.42 150.209 584.728C151.276 580.739 153.889 575.34 157.018 574.274C159.769 573.345 170.43 574.583 173.044 577.541C183.257 588.958 194.192 598.414 203.993 610.21C203.924 612.582 191.992 618.153 191.957 620.526Z" fill="#A7202E" fill-opacity="0.04"/>
<path d="M356.647 493.496C352.383 503.537 355.099 514.99 351.867 522.521C331.749 510.726 318.579 524.24 308.675 532.802C298.564 527.679 292.581 519.77 286.528 512.204C287.938 508.731 284.018 500.271 286.528 494.081C286.907 494.424 296.742 493.737 297.12 494.081C304.307 482.801 288.248 467.499 318.579 460.38L315.759 493.496L356.647 493.53V493.496Z" fill="#A7202E" fill-opacity="0.04"/>
<path d="M246.465 615.646C235.598 618.122 225.351 620.426 217.097 622.283C209.961 613.057 202.276 613.65 200.557 593.017C195.695 586.375 187.375 581.713 181.402 575.859C179.717 573.589 178.273 569.222 179.373 567.296C180.714 564.958 186.767 562.275 187.42 562.963C188.42 566.554 192.367 572.291 197.118 574.104C214.312 575.859 243.542 575.859 245.021 607.324C245.709 609.353 245.777 611.588 246.465 615.646Z" fill="#A7202E" fill-opacity="0.04"/>
<path d="M657.922 661.794C666.829 659.078 663.356 658.871 672.021 658.011C675.873 657.633 682.991 662.344 687.152 665.233C675.116 682.428 690.591 691.025 682.441 715.578C682.269 718.913 682.441 722.283 682.441 725.619C668.238 721.974 651.044 711.658 657.922 661.794Z" fill="#A7202E" fill-opacity="0.04"/>
<path d="M125.762 644.808C124.868 644.704 120.122 645.53 119.125 643.948C111.147 641.161 90.5133 632.564 91.0981 605.055C92.2327 584.42 116.855 594.324 131.78 586.14C133.602 588.272 139.448 584.731 141.271 586.863C136.113 594.119 135.459 602.199 133.499 610.212C130.92 620.872 145.535 636.003 125.727 644.842L125.762 644.808Z" fill="#A7202E" fill-opacity="0.04"/>
<path d="M665.215 739.996C670.889 747.286 680.036 752.408 683.715 759.802C686.81 766.026 683.956 774.728 685.297 781.778C678.179 782.947 671.061 784.907 663.873 785.045C659.472 785.148 654.795 782.913 650.599 780.987C645.819 778.786 631.445 782.361 630.413 778.716C629.038 773.867 644.169 764.96 641.59 756.571C651.046 756.363 659.334 743.916 665.18 739.961L665.215 739.996Z" fill="#A7202E" fill-opacity="0.04"/>
<path d="M207.432 427.951C201.689 437.614 205.713 441.707 198.801 448.966C176.483 457.181 159.288 452.023 150.038 427.713C147.803 426.647 145.739 419.839 146.977 418.085C149.35 414.68 154.646 410.45 157.913 411.035C185.08 409.038 195.671 406.767 207.432 421.074V427.951Z" fill="#A7202E" fill-opacity="0.04"/>
<path d="M269.298 618.363C283.088 618.363 287.731 605.467 296.74 599.14C300.282 620.528 319.196 611.931 310.977 645.874C312.078 650.103 309.533 655.296 308.673 660.042C303.687 658.632 296.672 658.804 294.127 655.502C283.088 656.636 296.74 644.6 269.333 618.363H269.298Z" fill="#A7202E" fill-opacity="0.04"/>
<path d="M463.25 639.852C408.607 660.075 398.496 636.035 416.825 600.821C432.679 598.176 465.348 637.722 463.25 639.852Z" fill="#A7202E" fill-opacity="0.04"/>
<path d="M136.698 695.014C132.468 685.936 116.305 680.709 124.421 667.676C123.389 664.443 127.034 659.216 129.614 655.64C131.023 653.679 136.182 647.696 138.658 646.32C144.366 643.156 148.493 645.598 154.133 642.297C162.73 651.478 173.046 663.514 150.934 673.969C145.57 677.786 148.596 692.538 145.536 699.622C143.988 699.725 138.279 694.877 136.732 694.98L136.698 695.014Z" fill="#A7202E" fill-opacity="0.04"/>
<path d="M353.584 649.758C359.774 641.643 353 640.748 357.023 636.003C361.7 630.501 369.059 620.528 379.307 618.189C373.22 615.507 373.392 614.648 367.34 611.931C365.93 611.312 364.898 605.363 367.34 606.773C373.839 604.331 375.627 603.161 384.396 601.58C390.517 600.513 397.326 603.368 404.548 604.606C422.361 606.773 372.498 646.319 365.62 658.355L353.584 649.758Z" fill="#A7202E" fill-opacity="0.04"/>
<path d="M83.6346 646.32C109.426 641.16 124.901 663.514 118.677 681.467C123.182 706.498 109.426 696.181 100.829 687.584C76.7569 687.584 78.1669 674.313 83.6346 646.32Z" fill="#A7202E" fill-opacity="0.04"/>
<path d="M274.489 493.289C281.367 572.385 258.74 570.426 250.417 560.348C245.912 550.857 202.273 520.801 219.467 512.202C229.784 498.448 241.82 486.413 274.489 493.289Z" fill="#A7202E" fill-opacity="0.04"/>
<path d="M479.273 316.189C472.12 303.155 473.943 293.838 485.188 284.242C491.137 283.521 504.892 266.327 515.587 259.895C523.806 235.376 551.317 253.856 568.511 233.657C574.562 233.305 571.792 242.777 577.108 242.255C566.816 244.315 547.878 247.413 549.597 253.856C542.103 257.19 536.568 259.027 535.842 256.204C523.747 262.677 512.868 270.994 503.173 281.802C491.137 292.118 494.576 314.471 479.273 316.189Z" fill="#A7202E" fill-opacity="0.04"/>
<path d="M315.377 569.255C313.28 572.454 312.695 583.733 308.878 589.579C298.974 581.945 286.044 570.356 277.825 562.584C274.042 558.973 272.873 552.611 270.5 547.522C276.14 545.321 274.111 530.844 279.648 531.119C283.602 531.291 307.158 534.558 298.802 551.133C303.823 556.257 308.5 561.724 315.412 569.324L315.377 569.255Z" fill="#A7202E" fill-opacity="0.04"/>
<path d="M170.81 354.085C188.52 354.018 202.275 381.529 203.788 358.246C212.592 354.018 226.348 367.773 228.823 376.094C229.786 378.09 224.318 380.977 221.12 384.485C218.197 387.683 210.77 386.824 210.873 386.687C195.398 383.248 188.52 372.931 176.278 368.15C172.22 365.605 161.009 371.212 166.236 357.111C167.749 356.114 169.297 355.082 170.81 354.085Z" fill="#A7202E" fill-opacity="0.04"/>
<path d="M160.734 360.723C159.19 364.214 162.287 374.584 160.734 378.089C148.973 384.967 150.692 400.442 142.095 410.758C111.146 384.967 124.901 386.686 154.647 358.178C156.676 359.004 158.705 359.863 160.734 360.689V360.723Z" fill="#A7202E" fill-opacity="0.04"/>
<path d="M686.673 745.737C680.276 706.499 697.471 723.693 702.629 685.866C716.247 686.553 713.805 703.508 713.496 711.245C712.842 729.093 713.461 721.148 702.629 728.851L686.673 745.737Z" fill="#A7202E" fill-opacity="0.04"/>
<path d="M291.927 590.884C286.94 594.667 283.192 599.964 277.931 603.334C272.704 606.704 270.709 621.423 257.298 610.212C240.103 593.017 251.108 591.606 247.359 579.433C267.614 575.823 281.369 574.104 289.932 583.903C290.586 586.207 291.239 588.546 291.892 590.85L291.927 590.884Z" fill="#A7202E" fill-opacity="0.04"/>
<path d="M241.822 460.621C252.138 446.868 272.771 450.305 275.694 465.128C279.752 470.389 279.821 464.507 289.966 476.096C266.066 490.95 252.138 462.341 241.822 460.621Z" fill="#A7202E" fill-opacity="0.04"/>
<path d="M158.258 400.2C161.594 391.122 164.001 385.792 166.168 379.809C188.933 380.703 210.873 381.528 202.275 407.319C188.52 407.319 169.606 421.075 158.258 400.166V400.2Z" fill="#A7202E" fill-opacity="0.04"/>
<path d="M45.8083 644.599C24.8658 629.985 54.4054 605.052 69.8805 599.894C76.4143 600.238 86.7994 628.918 83.3262 635.693C81.3316 639.544 77.3082 642.399 75.6232 646.319C74.0069 650.102 81.9162 649.757 75.5544 657.736C63.0025 654.916 68.1608 641.16 67.1292 631.016C65.2722 627.612 57.8442 629.124 51.9295 626.752C50.0037 626.958 52.0326 636.071 50.9665 639.441L45.8083 644.599Z" fill="#A7202E" fill-opacity="0.04"/>
<path d="M128.269 424.96C138.551 430.978 142.093 415.917 152.341 439.3C160.454 441.123 159.872 444.734 159.288 446.866C158.462 449.893 152.891 454.706 150.002 454.741C141.233 454.913 132.224 454.088 123.73 451.99C121.529 451.44 118.95 444.321 119.844 441.123C121.494 435.174 123.73 429.672 128.303 424.96H128.269Z" fill="#A7202E" fill-opacity="0.04"/>
<path d="M162.831 558.149C154.543 563.032 149.832 571.937 143.814 574.104C139.653 575.617 127.892 574.138 123.181 574.104C123.353 570.115 122.081 560.589 123.181 556.909C125.52 549.069 135.423 542.261 139.378 531.635C148.491 541.952 157.569 548.312 162.831 558.149Z" fill="#A7202E" fill-opacity="0.04"/>
<path d="M1252.74 506.876C1287.23 531.119 1278.63 515.644 1304.43 537.997C1304.77 545.7 1306.18 558.459 1306.49 564.58C1285.51 558.63 1273.48 534.558 1249.4 515.644L1252.74 506.876Z" fill="#A7202E" fill-opacity="0.04"/>
<path d="M210.872 534.557C219.881 539.612 223.045 546.352 229.785 551.751C232.88 554.227 226.587 561.586 228.066 566.056C234.943 574.104 215.995 576.993 212.591 575.823C202.274 568.946 183.361 558.629 191.958 537.996L210.872 534.557Z" fill="#A7202E" fill-opacity="0.04"/>
<path d="M331.231 554.227C324.181 552.508 318.817 551.201 310.632 549.241C314.037 539.714 324.972 528.297 331.231 522.519C333.569 520.353 337.627 525.27 340.997 524.239C341.823 528.297 342.27 534.97 340.997 538.237C338.625 544.392 334.085 549.757 331.197 554.227H331.231Z" fill="#A7202E" fill-opacity="0.04"/>
<path d="M183.363 493.292C189.312 500.926 201.726 491.607 205.715 496.731C202.105 499.482 209.154 519.288 193.714 519.288C178.205 524.242 179.477 512.652 172.427 509.041C177.414 504.811 175.282 500.135 183.363 493.292Z" fill="#A7202E" fill-opacity="0.04"/>
<path d="M111.764 760.525C108.944 752.856 107.087 738.171 104.267 730.571C111.73 725.723 117.885 728.097 124.281 723.936C121.805 735.731 120.636 742.195 118.023 754.643C116.441 754.609 113.346 756.397 111.764 756.363V760.525Z" fill="#A7202E" fill-opacity="0.04"/>
<path d="M314.036 664.169C324.353 656.635 350.007 659.417 354.512 661.793C357.297 667.949 353.893 677.752 357.228 685.18C356.334 686.281 332.125 684.08 331.231 685.18C320.364 677.924 326.313 672.354 314.036 664.169Z" fill="#A7202E" fill-opacity="0.04"/>
<path d="M1196.1 666.953C1194.66 661.141 1194 651.65 1196.1 649.758C1201.64 644.703 1212.02 643.742 1219.24 640.543C1220.55 642.504 1221.86 644.464 1223.16 646.424C1218.28 653.508 1213.4 660.558 1208.52 667.642C1206.31 667.607 1201.74 672.145 1199.54 672.111L1196.1 666.953Z" fill="#A7202E" fill-opacity="0.04"/>
<path d="M178.339 526.374C179.92 532.837 188.552 536.242 188.517 541.435C188.517 545.492 179.955 550.068 176.344 554.125C173.318 550.171 164.961 547.418 164.446 543.154C163.895 538.34 164.411 527.611 166.165 522.521C168.125 522.315 176.378 526.546 178.339 526.339V526.374Z" fill="#A7202E" fill-opacity="0.04"/>
<path d="M94.4665 462.343C106.743 461.621 115.306 464.44 126.861 463.752C123.628 471.765 119.742 484.797 116.303 493.291C107.947 485.588 100.553 482.046 92.2312 474.377L94.4665 462.343Z" fill="#A7202E" fill-opacity="0.04"/>
<path d="M203.994 458.903C208.671 452.644 218.059 442.362 222.736 436.104C226.725 440.333 230.714 444.563 234.703 448.793C224.628 452.025 215.755 461.379 209.153 465.78C207.089 463.442 206.058 461.241 203.994 458.903Z" fill="#A7202E" fill-opacity="0.04"/>
<path d="M131.778 534.554C122.149 529.19 114.996 518.91 109.941 514.749C107.053 512.376 105.574 507.493 104.955 503.538C104.714 502.025 109.185 497.933 110.491 498.311C118.023 491.571 119.742 500.166 119.742 504.57C123.456 510.141 130.127 503.57 135.217 513.921L131.778 534.554Z" fill="#A7202E" fill-opacity="0.04"/>
<path d="M14.2024 588.926C9.76633 582.53 2.81967 577.544 0 568.465C6.25852 551.753 32.0499 562.07 25.1722 586.142C23.4528 587.38 15.9219 587.688 14.2024 588.926Z" fill="#A7202E" fill-opacity="0.04"/>
<path d="M271.464 567.055C283.087 580.982 245.982 572.179 236.284 574.105C228.065 568.946 241.202 557.736 244.125 557.77C252.447 557.873 260.734 562.997 271.464 567.055Z" fill="#A7202E" fill-opacity="0.04"/>
<path d="M159.737 686.384C163.21 679.3 161.009 668.673 169.606 656.637C174.764 665.234 180.06 676.549 178.169 680.882C176.106 685.628 168.162 687.828 162.763 691.13C161.731 689.548 160.734 688 159.702 686.419L159.737 686.384Z" fill="#A7202E" fill-opacity="0.04"/>
<path d="M133.017 474.859C136.456 471.351 139.448 465.677 143.472 464.852C149.455 463.614 156.161 465.814 162.557 466.537C162.351 468.084 161.216 476.716 161.01 478.263C152.722 480.636 145.397 475.89 137.11 478.263C135.734 477.128 134.359 475.993 133.017 474.859Z" fill="#A7202E" fill-opacity="0.04"/>
<path d="M226.314 492.705C197.634 504.156 152.412 492.705 190.24 457.183C196.911 463.373 216.96 484.039 226.314 492.705Z" fill="#A7202E" fill-opacity="0.04"/>
<path d="M176.483 482.975C172.254 490.781 163.278 499.206 158.739 507.632C147.253 505.328 152.962 490.644 147.253 481.256C157.123 482.081 158.395 480.431 167.886 481.256L176.483 482.975Z" fill="#A7202E" fill-opacity="0.04"/>
<path d="M130.058 489.853C134.116 492.948 144.983 494.391 147.253 498.449C149.247 501.991 138.655 505.808 138.655 510.485C137.142 510.726 137.762 511.999 136.248 512.24C132.431 505.912 118.022 507.046 124.831 493.223C126.069 491.572 127.101 493.223 128.339 491.572L130.058 489.853Z" fill="#A7202E" fill-opacity="0.04"/>
<path d="M101.793 522.28C121.463 517.361 126.69 532.666 116.305 551.752C109.427 544.872 110.321 534.384 101.793 522.28Z" fill="#A7202E" fill-opacity="0.04"/>
<path d="M156.021 534.421C150.966 528.196 147.905 524.413 142.575 517.88C150.794 516.367 151.138 508.834 161.007 507.046C159.288 517.362 162.727 527.679 156.021 534.421Z" fill="#A7202E" fill-opacity="0.04"/>
<path d="M238.382 482.974C231.883 479.535 226.415 478.092 219.916 474.653C220.603 473.174 219.228 469.011 219.916 467.498C226.828 469.698 238.348 465.297 245.26 467.498C244.194 470.215 239.448 480.257 238.382 482.974Z" fill="#A7202E" fill-opacity="0.04"/>
</svg>
