<svg width="1920" height="136" viewBox="0 0 1920 136" fill="none" xmlns="http://www.w3.org/2000/svg">
<path fill-rule="evenodd" clip-rule="evenodd" d="M507.253 56.7358C507.253 51.8338 511.165 47.8691 516.003 47.8691C520.84 47.8691 524.753 51.8338 524.753 56.7358C524.753 62.0178 519.228 69.3011 516.965 72.0751C516.465 72.6831 515.553 72.6831 515.053 72.0751C512.778 69.3011 507.253 62.0178 507.253 56.7358ZM512.878 56.7358C512.878 58.4838 514.278 59.9025 516.003 59.9025C517.728 59.9025 519.128 58.4838 519.128 56.7358C519.128 54.9878 517.728 53.5691 516.003 53.5691C514.278 53.5691 512.878 54.9878 512.878 56.7358Z" fill="#F3BAC0"/>
<path fill-rule="evenodd" clip-rule="evenodd" d="M1364.25 98.7358C1364.25 93.8338 1368.17 89.8691 1373 89.8691C1377.84 89.8691 1381.75 93.8338 1381.75 98.7358C1381.75 104.018 1376.23 111.301 1373.97 114.075C1373.47 114.683 1372.55 114.683 1372.05 114.075C1369.78 111.301 1364.25 104.018 1364.25 98.7358ZM1369.88 98.7358C1369.88 100.484 1371.28 101.902 1373 101.902C1374.73 101.902 1376.13 100.484 1376.13 98.7358C1376.13 96.9878 1374.73 95.5691 1373 95.5691C1371.28 95.5691 1369.88 96.9878 1369.88 98.7358Z" fill="#F3BAC0"/>
<path fill-rule="evenodd" clip-rule="evenodd" d="M1896.25 82.7358C1896.25 77.8338 1900.17 73.8691 1905 73.8691C1909.84 73.8691 1913.75 77.8338 1913.75 82.7358C1913.75 88.0178 1908.23 95.3011 1905.97 98.0751C1905.47 98.6831 1904.55 98.6831 1904.05 98.0751C1901.78 95.3011 1896.25 88.0178 1896.25 82.7358ZM1901.88 82.7358C1901.88 84.4838 1903.28 85.9025 1905 85.9025C1906.73 85.9025 1908.13 84.4838 1908.13 82.7358C1908.13 80.9878 1906.73 79.5691 1905 79.5691C1903.28 79.5691 1901.88 80.9878 1901.88 82.7358Z" fill="#F3BAC0"/>
<path fill-rule="evenodd" clip-rule="evenodd" d="M34.2527 46.7358C34.2527 41.8338 38.1652 37.8691 43.0027 37.8691C47.8402 37.8691 51.7527 41.8338 51.7527 46.7358C51.7527 52.0178 46.2277 59.3011 43.9652 62.0751C43.4652 62.6831 42.5527 62.6831 42.0527 62.0751C39.7777 59.3011 34.2527 52.0178 34.2527 46.7358ZM39.8777 46.7358C39.8777 48.4838 41.2777 49.9025 43.0027 49.9025C44.7277 49.9025 46.1277 48.4838 46.1277 46.7358C46.1277 44.9878 44.7277 43.5691 43.0027 43.5691C41.2777 43.5691 39.8777 44.9878 39.8777 46.7358Z" fill="#F3BAC0"/>
<path d="M1972 159.5C1918.8 -2.49998 1706.83 -12.167 1627.5 32.9996C1548.17 78.1663 1392 189.996 1134 59.5C961.6 -27.6997 782 -0.256634 721 32.9996C663.833 64.1664 505.5 113.1 329.5 59.5C153.5 5.89999 58.2715 42 25.5 104C-7.27145 166 7.4 214.9 -119 248.5" stroke="#F3BAC0" stroke-linecap="round" stroke-dasharray="7 7"/>
</svg>
