<svg width="24" height="25" viewBox="0 0 24 25" fill="none" xmlns="http://www.w3.org/2000/svg">
<path d="M12 22.4512C10.6167 22.4512 9.31667 22.1887 8.1 21.6637C6.88333 21.1387 5.825 20.4262 4.925 19.5262C4.025 18.6262 3.3125 17.5678 2.7875 16.3512C2.2625 15.1345 2 13.8345 2 12.4512C2 11.0678 2.2625 9.76784 2.7875 8.55117C3.3125 7.33451 4.025 6.27617 4.925 5.37617C5.825 4.47617 6.88333 3.76367 8.1 3.23867C9.31667 2.71367 10.6167 2.45117 12 2.45117C13.4 2.45117 14.7042 2.71367 15.9125 3.23867C17.1208 3.76367 18.175 4.47617 19.075 5.37617C19.975 6.27617 20.6875 7.33034 21.2125 8.53867C21.7375 9.74701 22 11.0512 22 12.4512C22 12.6178 21.9958 12.7803 21.9875 12.9387C21.9792 13.097 21.9667 13.2512 21.95 13.4012C21.9167 13.6845 21.7958 13.9012 21.5875 14.0512C21.3792 14.2012 21.1333 14.2512 20.85 14.2012C20.5667 14.1512 20.3417 14.0095 20.175 13.7762C20.0083 13.5428 19.9417 13.2845 19.975 13.0012C19.975 12.9178 19.9792 12.8262 19.9875 12.7262C19.9958 12.6262 20 12.5345 20 12.4512C20 11.3345 19.7958 10.2928 19.3875 9.32617C18.9792 8.35951 18.4083 7.50951 17.675 6.77617C16.9417 6.04284 16.0917 5.47201 15.125 5.06367C14.1583 4.65534 13.1167 4.45117 12 4.45117C9.76667 4.45117 7.875 5.22617 6.325 6.77617C4.775 8.32617 4 10.2178 4 12.4512C4 14.6845 4.775 16.5762 6.325 18.1262C7.875 19.6762 9.76667 20.4512 12 20.4512C12.75 20.4512 13.4708 20.3553 14.1625 20.1637C14.8542 19.972 15.5083 19.6845 16.125 19.3012C16.3583 19.1678 16.6125 19.1178 16.8875 19.1512C17.1625 19.1845 17.375 19.3178 17.525 19.5512C17.6917 19.7845 17.7458 20.0387 17.6875 20.3137C17.6292 20.5887 17.4833 20.8012 17.25 20.9512C16.4667 21.4345 15.6375 21.8053 14.7625 22.0637C13.8875 22.322 12.9667 22.4512 12 22.4512ZM19.25 18.4512C18.9 18.4512 18.6042 18.3303 18.3625 18.0887C18.1208 17.847 18 17.5512 18 17.2012C18 16.8512 18.1208 16.5553 18.3625 16.3137C18.6042 16.072 18.9 15.9512 19.25 15.9512C19.6 15.9512 19.8958 16.072 20.1375 16.3137C20.3792 16.5553 20.5 16.8512 20.5 17.2012C20.5 17.5512 20.3792 17.847 20.1375 18.0887C19.8958 18.3303 19.6 18.4512 19.25 18.4512ZM13 12.0512L16 15.0512C16.1833 15.2345 16.275 15.4678 16.275 15.7512C16.275 16.0345 16.1833 16.2678 16 16.4512C15.8167 16.6345 15.5833 16.7262 15.3 16.7262C15.0167 16.7262 14.7833 16.6345 14.6 16.4512L11.3 13.1512C11.2 13.0512 11.125 12.9387 11.075 12.8137C11.025 12.6887 11 12.5595 11 12.4262V8.45117C11 8.16784 11.0958 7.93034 11.2875 7.73867C11.4792 7.54701 11.7167 7.45117 12 7.45117C12.2833 7.45117 12.5208 7.54701 12.7125 7.73867C12.9042 7.93034 13 8.16784 13 8.45117V12.0512Z" fill="#BABABA"/>
</svg>
